<svg
  width="256px"
  height="221px"
  viewBox="0 0 256 221"
  version="1.1"
  xmlns="http://www.w3.org/2000/svg"
  xmlns:xlink="http://www.w3.org/1999/xlink"
  preserveAspectRatio="xMidYMid"
>
  <g>
    <path
      d="M0 0V256H128C160.292 256 185.25 251.792 203.667 243.458C222.167 235.083 236.583 223.833 246.917 209.708C257.25 195.5 262.5 178.25 262.5 158C262.5 137.75 256.833 120.292 245.583 105.625C234.25 90.9167 218.042 80.25 197 73.75V105.25C211.083 109.167 221.583 116.5 228.5 127.25C235.417 138 239.083 152.375 239.5 170.5C239.875 188.625 236.417 203.375 229.167 214.875C221.917 226.292 211.542 234.667 198 240C184.458 245.25 168.167 247.833 149.083 247.833H74.2083V8.25H0V0H64.875V229.167H125.417C150.292 229.167 168.667 225.167 180.667 217.167C192.625 209.083 198.625 196.917 198.625 180.75C198.625 164.542 191.25 153.25 176.458 146.958C162.208 140.667 138.458 137.833 105.25 138.542V128.167H167.542C180.792 128.167 193.375 130.083 205.292 134.042C217.208 137.875 226.292 144.417 232.625 153.667C238.917 162.917 242.292 174.083 242.792 187.125C243.167 200.25 240.208 210.875 233.875 219C227.542 227 218.417 232.25 206.5 234.75C194.625 237.167 180.708 238.167 164.708 237.75H106.792V247.833H207.667C227.125 247.833 243.75 244.333 257.583 237.25C271.5 230.083 281.875 219.25 288.833 204.75C295.75 190.167 299.292 172.708 299.5 152.375C299.667 132.083 296.458 115.75 289.958 103.375C283.458 91 273.417 81.5 259.792 75C246.208 68.4167 229.458 65.25 209.542 65.25H64.875V0H0Z"
      fill="#092E20"
    />
  </g>
</svg>
